<?xml version="1.0" encoding="utf-8"?>
<svg version="1.1" id="Layer_1" x="0px" y="0px" viewBox="0 0 416 400" enable-background="new 0 0 1000 1000" xmlns="http://www.w3.org/2000/svg" xmlns:bx="https://boxy-svg.com">
  <defs>
    <filter id="drop-shadow-filter-0" x="-500%" y="-500%" width="1000%" height="1000%" bx:preset="drop-shadow 1 0 0 15 1 rgba(95,95,211,0.54)">
      <feGaussianBlur in="SourceAlpha" stdDeviation="15"/>
      <feOffset dx="0" dy="0"/>
      <feComponentTransfer result="offsetblur">
        <feFuncA id="spread-ctrl" type="linear" slope="2"/>
      </feComponentTransfer>
      <feFlood flood-color="rgba(95,95,211,0.54)"/>
      <feComposite in2="offsetblur" operator="in"/>
      <feMerge>
        <feMergeNode/>
        <feMergeNode in="SourceGraphic"/>
      </feMerge>
    </filter>
  </defs>
  <g transform="matrix(0.885107, 0, 0, 0.885107, -232.344742, -237.659805)" style="">
    <path d="M 490.25 567.26 L 458.27 598.749 L 379.87 523.525 L 379.87 590.402 L 458.139 666.202 L 559.865 567.26 L 490.25 567.26 Z" style="fill: rgb(135, 144, 196);"/>
    <path d="M 581.39 430.74 L 525.554 377.938 L 455.806 445.336 L 490.275 478.13 L 525.554 444.276 L 581.39 497.758" style="fill: rgb(135, 144, 196);"/>
    <path d="M 475.6 476.4 L 441.1 443.1 L 319 325 L 318.995 536.092 L 367.226 582.835 L 367 438.3 L 407.4 477.4 L 441.9 510.6 L 491.38 559 L 561 559 L 475.6 476.4 Z" style="filter: url(#drop-shadow-filter-0); fill: rgb(94, 58, 238);"/>
    <path d="M 589.13 495.777 L 629.13 457 L 629.13 566 L 677.13 566 L 677.13 332 L 589.13 431" style="filter: url(#drop-shadow-filter-0); fill: rgb(94, 58, 238);"/>
  </g>
</svg>